<svg xmlns="http://www.w3.org/2000/svg" style="display:none">
  <symbol id="play" viewBox="0 0 24 24"><path d="M8 5v14l11-7z"/></symbol>
  <symbol id="trash" viewBox="0 0 24 24"><path d="M3 6h18M9 6v12m6-12v12M5 6l1 14a2 2 0 0 0 2 2h8a2 2 0 0 0 2-2l1-14M9 6V4a2 2 0 0 1 2-2h2a2 2 0 0 1 2 2v2" fill="none" stroke="currentColor" stroke-width="2"/></symbol>
  <symbol id="upload" viewBox="0 0 24 24"><path d="M12 16V4m0 0l-4 4m4-4l4 4M4 20h16" fill="none" stroke="currentColor" stroke-width="2"/></symbol>
  <symbol id="download" viewBox="0 0 24 24"><path d="M12 4v12m0 0l-4-4m4 4l4-4M4 20h16" fill="none" stroke="currentColor" stroke-width="2"/></symbol>
  <symbol id="copy" viewBox="0 0 24 24"><path d="M9 9h11v11H9zM5 5h11v2H7v12H5z"/></symbol>
  <symbol id="clock" viewBox="0 0 24 24"><path d="M12 7v5l3 3M12 22a10 10 0 1 0 0-20a10 10 0 0 0 0 20z" fill="none" stroke="currentColor" stroke-width="2"/></symbol>
  <symbol id="search" viewBox="0 0 24 24"><path d="M21 21l-4.35-4.35M10 18a8 8 0 1 1 0-16a8 8 0 0 1 0 16z" fill="none" stroke="currentColor" stroke-width="2"/></symbol>
  <symbol id="sun" viewBox="0 0 24 24"><path d="M12 4V2m0 20v-2M4 12H2m20 0h-2M5 5L3.5 3.5M20.5 20.5L19 19M5 19l-1.5 1.5M20.5 3.5L19 5" stroke="currentColor" stroke-width="2"/><circle cx="12" cy="12" r="4"/></symbol>
  <symbol id="moon" viewBox="0 0 24 24"><path d="M21 12.79A9 9 0 1 1 11.21 3A7 7 0 0 0 21 12.79z"/></symbol>
</svg>

